<svg xmlns="http://www.w3.org/2000/svg" xmlns:xlink="http://www.w3.org/1999/xlink" version="1.0" x="0px" y="0px" viewBox="0 0 90 112.5" enable-background="new 0 0 90 90" xml:space="preserve"><path d="M59.954,60.156c-1.128,1.129-2.957,1.129-4.085,0.002L42.952,47.044c-0.545-0.546-0.846-1.272-0.846-2.044V19.895  c0-1.596,1.293-2.889,2.888-2.889c1.596,0,2.889,1.293,2.889,2.889v23.909l12.07,12.269C61.081,57.199,61.081,59.029,59.954,60.156z   M72.734,72.734c-7.11,7.105-16.895,11.488-27.74,11.49c-10.837-0.002-20.624-4.385-27.73-11.488  C10.161,65.631,5.776,55.844,5.775,45c0.001-10.838,4.386-20.625,11.488-27.734c7.106-7.103,16.894-11.488,27.73-11.49  c1.596,0,2.889-1.293,2.889-2.887C47.883,1.293,46.59,0,44.994,0C20.146,0.003,0.003,20.15-0.001,45  c0.002,24.859,20.146,44.998,44.995,45c12.422,0.002,23.688-5.041,31.823-13.182c1.129-1.129,1.129-2.957,0-4.084  C75.689,71.605,73.862,71.605,72.734,72.734z M85.66,56.375c1.504,0.535,2.289,2.186,1.755,3.689  c-0.495,1.391-1.055,2.75-1.68,4.074c-0.679,1.443-2.398,2.062-3.843,1.385c-1.442-0.68-2.062-2.4-1.382-3.846  c0.543-1.152,1.031-2.336,1.461-3.549C82.506,56.627,84.157,55.842,85.66,56.375z M86.916,39.99c1.592-0.08,2.948,1.148,3.027,2.74  C89.981,43.483,90,44.239,90,45c0,0.716-0.018,1.426-0.05,2.133c-0.075,1.594-1.427,2.824-3.021,2.75  c-1.592-0.074-2.824-1.426-2.75-3.02c0.03-0.617,0.044-1.238,0.044-1.863c0-0.665-0.017-1.326-0.049-1.982  C84.096,41.425,85.322,40.069,86.916,39.99z M81.834,24.371c1.44-0.684,3.162-0.068,3.847,1.371c0.626,1.322,1.189,2.68,1.689,4.068  c0.538,1.5-0.243,3.154-1.745,3.693c-1.5,0.539-3.154-0.242-3.692-1.743c-0.434-1.21-0.926-2.392-1.471-3.542  C79.777,26.777,80.393,25.055,81.834,24.371z M71.163,11.878c1.072-1.181,2.898-1.27,4.08-0.196c1.087,0.987,2.125,2.026,3.11,3.115  c1.071,1.182,0.981,3.008-0.2,4.08c-1.182,1.07-3.008,0.98-4.079-0.202c-0.86-0.949-1.766-1.856-2.715-2.718  C70.179,14.886,70.09,13.059,71.163,11.878z M56.539,4.386c0.54-1.501,2.194-2.278,3.696-1.739c1.389,0.501,2.746,1.066,4.067,1.697  c1.441,0.684,2.054,2.406,1.368,3.848c-0.686,1.439-2.408,2.052-3.848,1.367c-1.152-0.548-2.336-1.041-3.546-1.477  C56.777,7.541,55.999,5.887,56.539,4.386z"/><text x="0" y="105" fill="#000000" font-size="5px" font-weight="bold" font-family="'Helvetica Neue', Helvetica, Arial-Unicode, Arial, Sans-serif">Created by xwoodhillx</text><text x="0" y="110" fill="#000000" font-size="5px" font-weight="bold" font-family="'Helvetica Neue', Helvetica, Arial-Unicode, Arial, Sans-serif">from the Noun Project</text></svg>